<svg version="1.1" id="Layer_1" xmlns="http://www.w3.org/2000/svg" xmlns:xlink="http://www.w3.org/1999/xlink" x="0px" y="0px"
	 width="100%" viewBox="0 0 1306 542" enable-background="new 0 0 1306 542" xml:space="preserve">
<path fill="#FEFEFE" opacity="1.000000" stroke="none" 
	d="
M915.000000,543.000000 
	C610.000000,543.000000 305.500031,543.000000 1.000041,543.000000 
	C1.000027,362.333374 1.000027,181.666718 1.000014,1.000065 
	C436.333282,1.000043 871.666565,1.000043 1307.000000,1.000022 
	C1307.000000,181.666611 1307.000000,362.333221 1307.000000,542.999878 
	C1176.500000,543.000000 1046.000000,543.000000 915.000000,543.000000 
M949.704834,275.830597 
	C949.704834,275.830597 949.700745,275.770905 949.088684,276.077209 
	C945.821655,283.572876 947.161621,285.913910 954.715393,285.906677 
	C956.714844,285.904755 958.723206,286.019745 960.711609,285.870331 
	C963.533386,285.658234 964.586365,286.856628 964.550415,289.640869 
	C964.445068,297.804047 964.519104,305.969452 964.438354,314.133179 
	C964.428711,315.112427 963.899170,316.086578 963.383301,317.832458 
	C954.618164,308.240662 946.659363,299.149231 942.173279,287.642731 
	C941.543762,286.028076 941.674255,283.760529 942.267578,282.083374 
	C946.239258,270.855804 948.580383,259.366608 948.885681,247.435471 
	C948.974792,243.952682 947.830811,242.749222 944.302490,242.800888 
	C932.474915,242.974060 920.643311,242.852020 908.813293,242.878601 
	C900.209412,242.897949 897.415588,247.086716 900.580017,255.922791 
	C910.476746,255.922791 920.559387,255.922791 932.246277,255.922791 
	C929.776367,264.872345 928.229797,273.222168 925.166870,280.972778 
	C919.682922,294.849762 909.838379,305.284027 897.041809,312.979309 
	C895.707092,313.781952 893.894226,315.615234 894.038269,316.750153 
	C894.875122,323.346344 903.273499,327.315887 908.509644,323.230225 
	C915.415100,317.841980 921.652405,311.596161 928.159180,305.699371 
	C929.291626,304.673004 930.336365,303.549866 931.221741,302.670105 
	C936.609985,309.420013 941.341797,315.803589 946.571533,321.749268 
	C950.498230,326.213501 954.331970,326.067902 958.673462,322.024811 
	C960.304871,320.505554 961.731262,318.766052 964.120239,316.189575 
	C964.286255,318.725922 964.468750,320.246399 964.472107,321.767273 
	C964.495300,332.264313 964.416931,342.762238 964.553955,353.257538 
	C964.572632,354.686371 965.204590,356.804535 966.242493,357.398987 
	C970.203735,359.667664 978.312134,357.076508 981.261536,352.896332 
	C981.261536,352.896332 981.287598,352.749451 981.855652,352.242767 
	C982.360596,349.510803 983.296875,346.780151 983.304932,344.046753 
	C983.405029,310.216766 983.373108,276.386444 983.358582,242.556183 
	C983.357971,241.100906 983.197449,239.645676 983.116455,238.275360 
	C969.325684,235.626663 964.471375,239.593796 964.490723,253.166458 
	C964.492371,254.333023 964.493469,255.499573 964.493530,256.666138 
	C964.493835,262.082520 964.493713,267.498901 964.493713,273.406647 
	C961.581238,273.406647 959.393188,273.105682 957.328796,273.482635 
	C954.734436,273.956360 952.241333,274.985016 949.704834,275.830597 
M708.197571,322.418060 
	C687.598755,306.235443 680.577820,284.283722 681.541077,259.070160 
	C681.584167,257.940979 683.832520,256.166229 685.237122,255.963608 
	C688.667236,255.468750 692.229553,255.961975 695.693054,255.609039 
	C699.826294,255.187866 701.793213,251.789780 701.597046,246.689087 
	C701.412842,241.897430 697.859924,243.316849 695.359985,243.298615 
	C681.042603,243.194199 666.724060,243.244873 652.405945,243.247787 
	C643.387146,243.249634 641.100159,246.469498 643.859558,255.815948 
	C648.712646,255.815948 653.702698,255.590698 658.647400,255.964783 
	C659.984619,256.065918 662.256836,257.950470 662.289490,259.069275 
	C662.966248,282.262512 657.683044,303.270416 639.340942,319.257141 
	C638.388184,320.087555 637.630249,321.141510 636.803223,322.067261 
	C644.713379,330.301361 650.155029,330.477356 657.492126,322.536377 
	C661.307861,318.406616 664.640137,313.822113 668.081909,309.359009 
	C669.421509,307.621887 670.461487,305.653717 671.496765,304.014343 
	C677.046021,310.882202 681.969910,317.513245 687.466492,323.629547 
	C693.103943,329.902618 698.319885,329.890686 704.826233,324.519379 
	C706.117310,323.453522 707.615662,322.638702 709.113953,322.814331 
	C709.094849,333.133514 709.166382,343.454102 709.002686,353.770996 
	C708.952026,356.966125 709.923035,358.118103 713.257812,358.162231 
	C724.558899,358.311768 728.248474,354.834778 728.249512,343.425781 
	C728.252014,315.463745 728.244263,287.501678 728.244446,259.539642 
	C728.244507,253.714233 728.101135,247.882523 728.331299,242.065857 
	C728.464294,238.702957 727.124817,237.814575 723.962585,237.747833 
	C712.652771,237.509109 709.067993,240.927170 709.064148,252.410461 
	C709.061829,259.350006 709.063721,266.289551 709.063721,273.408173 
	C705.334229,273.574829 702.140747,273.401978 699.067566,273.929474 
	C694.564758,274.702362 692.657349,278.269440 693.347595,283.422546 
	C693.945740,287.887085 697.361450,285.845276 699.612427,286.081970 
	C702.531921,286.388947 705.508057,286.156952 709.031128,286.156952 
	C709.031128,298.543823 709.031128,310.319122 708.197571,322.418060 
M435.858459,301.652618 
	C432.971466,298.434326 430.314697,294.967560 427.156769,292.041687 
	C414.966644,280.747253 402.410980,278.957794 388.296539,286.654938 
	C383.654602,289.186310 379.184631,292.213226 375.122284,295.597260 
	C352.679871,314.292084 337.283478,338.249176 324.507538,364.119873 
	C316.687195,379.955811 311.007141,396.226471 311.697266,414.339569 
	C312.574066,437.354584 326.606812,456.638489 348.368896,464.064850 
	C368.721619,471.010254 388.894958,470.024200 409.185059,463.727905 
	C439.258881,454.395538 462.743958,424.957397 463.521759,393.474365 
	C464.342072,360.271301 454.897186,329.781342 435.858459,301.652618 
M595.859558,324.327667 
	C604.124451,308.703064 608.400574,292.145386 606.957214,274.410034 
	C605.140381,252.084641 595.600952,233.750961 578.265686,219.386658 
	C566.041626,209.257584 551.674744,203.839447 536.745544,199.537735 
	C514.906799,193.245102 492.763641,190.225815 470.229462,195.078033 
	C457.306183,197.860748 446.205475,203.601822 442.316437,217.645294 
	C439.530914,227.703934 440.879333,237.843430 443.100403,247.806244 
	C448.679749,272.832947 460.185760,295.229126 474.250580,316.408173 
	C484.056244,331.173706 494.683258,345.265778 510.361725,354.443726 
	C528.645447,365.146667 547.482910,366.752625 566.402161,356.412170 
	C579.499084,349.253998 588.463623,337.919556 595.859558,324.327667 
M332.561737,71.980911 
	C331.440094,72.289421 330.292084,72.524567 329.200775,72.917366 
	C310.169006,79.767525 296.614929,93.112389 285.944977,109.740768 
	C264.610291,142.989319 268.935333,184.221100 297.089020,211.660355 
	C313.606506,227.758759 333.964355,237.623047 355.606720,244.911530 
	C369.456360,249.575684 383.617676,252.384476 398.317566,250.085190 
	C410.421478,248.191956 419.947693,242.298965 423.092957,229.986755 
	C425.410736,220.913803 426.838562,211.357040 426.879028,202.008133 
	C426.989410,176.523178 420.144958,152.360214 410.897675,128.816879 
	C404.778931,113.238602 397.705200,98.207954 385.185547,86.548042 
	C370.452332,72.826576 353.436493,66.867287 332.561737,71.980911 
M220.691895,326.195068 
	C218.668732,327.333801 216.613693,328.419830 214.628342,329.621063 
	C208.296066,333.452332 201.322739,335.001099 194.081772,334.501007 
	C177.444580,333.351959 165.893250,322.740906 161.879196,305.431885 
	C158.565506,291.142853 166.077957,273.666870 178.761307,266.226013 
	C191.513840,258.744598 203.924026,260.121887 215.823486,268.088013 
	C222.861847,272.799866 229.571869,272.988800 236.707672,268.397278 
	C244.941452,263.099304 245.133331,262.296356 238.212936,255.487503 
	C218.340256,235.935120 187.554901,232.230469 164.176910,246.578110 
	C141.705978,260.369080 130.832718,290.306671 138.942764,316.017792 
	C146.835678,341.040527 164.021622,355.231567 189.899063,357.786316 
	C210.715576,359.841400 228.347137,352.181549 242.481232,336.674133 
	C243.985870,335.023285 244.858139,333.573090 242.699875,331.671539 
	C236.522324,326.228821 229.910339,322.612610 220.691895,326.195068 
M300.008545,290.500000 
	C300.004089,282.837067 299.857941,275.169342 300.117645,267.515381 
	C300.168182,266.026031 301.497955,263.687408 302.746979,263.272125 
	C313.093597,259.832001 315.442749,256.600250 315.500214,246.035400 
	C315.521606,242.100601 313.975403,241.313461 310.443878,241.354874 
	C296.785706,241.515060 283.124512,241.424911 269.464447,241.417343 
	C256.824799,241.410324 251.555588,247.000595 252.048096,259.539459 
	C252.162201,262.444580 253.273102,263.341492 255.951218,263.268402 
	C259.946533,263.159393 263.965790,263.465424 267.939331,263.149170 
	C272.112885,262.816956 273.355133,264.336517 273.319794,268.500214 
	C273.135956,290.150452 273.212891,311.803070 273.241821,333.454834 
	C273.260620,347.498566 268.875000,358.797058 254.964462,364.868835 
	C248.844482,367.540192 245.831299,372.815857 245.350723,379.529236 
	C245.090302,383.167053 246.204727,385.085999 250.189606,384.072418 
	C253.089844,383.334747 256.000702,382.634857 258.884766,381.838257 
	C286.246979,374.280914 299.962860,356.319885 300.008698,327.982361 
	C300.028381,315.821594 300.009766,303.660797 300.008545,290.500000 
M1101.310059,252.648926 
	C1101.313354,260.811218 1101.074829,268.983795 1101.421509,277.131470 
	C1101.595947,281.227844 1100.082764,282.995819 1096.243042,283.198517 
	C1079.318359,284.092010 1062.393311,284.978546 1045.466309,285.825806 
	C1045.070435,285.845642 1044.649902,285.374390 1044.360107,285.202850 
	C1044.360107,275.317047 1044.360107,265.593353 1044.360107,255.926743 
	C1045.186401,255.706894 1045.660767,255.472122 1046.136230,255.470154 
	C1056.462646,255.427521 1066.789062,255.416321 1077.115601,255.387421 
	C1085.480469,255.364014 1088.246948,251.476486 1085.630005,242.866425 
	C1066.626099,242.866425 1047.496094,242.893906 1028.366577,242.839752 
	C1025.126709,242.830597 1025.088745,244.826889 1025.094604,247.166229 
	C1025.126709,260.158997 1025.064575,273.152130 1025.131226,286.144623 
	C1025.168457,293.400787 1029.574585,298.556641 1036.712158,298.485779 
	C1051.511963,298.338837 1066.319580,297.819183 1081.095215,296.958618 
	C1087.644165,296.577240 1094.123169,294.995850 1101.279053,293.856445 
	C1101.279053,296.131927 1101.033813,297.963013 1101.359741,299.686066 
	C1101.602417,300.969147 1102.297485,302.796051 1103.282715,303.209778 
	C1111.192017,306.531189 1120.060303,300.576538 1120.266724,291.958588 
	C1120.346436,288.628967 1120.487915,285.279633 1120.228027,281.968597 
	C1119.927002,278.137146 1121.514893,276.972534 1125.157715,277.278931 
	C1128.466187,277.557159 1131.822510,277.467224 1135.143555,277.283112 
	C1136.275146,277.220428 1137.955811,276.675964 1138.374634,275.843201 
	C1140.956543,270.708893 1137.466553,265.069977 1131.705322,264.801208 
	C1130.043335,264.723663 1128.374390,264.793823 1126.708618,264.794922 
	C1120.284302,264.799072 1120.283081,264.798889 1120.281616,258.295258 
	C1120.280151,251.551514 1120.281372,244.807770 1120.281372,238.181992 
	C1105.576050,236.792618 1101.351440,239.973495 1101.310059,252.648926 
M852.499207,358.083893 
	C859.163330,358.078949 865.835999,358.279877 872.488647,358.000977 
	C877.415955,357.794403 879.159668,354.949280 879.205383,349.380463 
	C879.251404,343.771057 875.240601,345.545013 872.498901,345.531036 
	C853.173401,345.432648 833.847046,345.467407 814.521118,345.509888 
	C811.625183,345.516235 809.346680,345.485809 809.297119,341.432831 
	C809.248352,337.447357 811.325745,337.264496 814.320679,337.276733 
	C830.980835,337.344788 847.641724,337.371124 864.301636,337.280701 
	C871.813965,337.239929 877.381958,333.151337 877.862915,326.701172 
	C878.379089,319.777527 877.979370,312.785522 877.979370,305.446869 
	C876.208435,305.280273 874.763611,305.027283 873.318481,305.025818 
	C848.494507,305.000580 823.670471,305.001343 798.846497,305.019440 
	C797.521729,305.020416 796.115845,304.976501 794.886597,305.378235 
	C789.969910,306.985107 790.654907,311.160431 790.840454,314.945312 
	C791.029114,318.793854 794.119629,317.500580 796.160339,317.508728 
	C815.152893,317.584595 834.145874,317.552399 853.138733,317.551544 
	C854.896790,317.551453 856.654846,317.551514 858.802063,317.551514 
	C858.670898,320.432617 858.577209,322.490356 858.471375,324.816010 
	C856.021362,324.816010 854.201355,324.816254 852.381348,324.815979 
	C835.554321,324.813568 818.727295,324.788300 801.900330,324.819061 
	C794.518921,324.832550 790.913757,328.404083 790.801392,335.830444 
	C790.713196,341.660278 790.970703,347.500885 790.711243,353.320526 
	C790.546082,357.026245 791.743774,358.202515 795.521118,358.166412 
	C814.179077,357.988129 832.839600,358.084076 852.499207,358.083893 
M777.400696,247.890274 
	C766.395264,261.774933 767.467529,277.553375 780.175842,288.726227 
	C794.535828,301.351135 818.041077,301.434204 832.538940,288.911224 
	C847.261169,276.194458 846.295471,254.651230 830.494568,243.303085 
	C814.310242,231.679535 792.163147,233.396027 777.400696,247.890274 
M1116.618896,318.876953 
	C1105.270996,302.535461 1084.148804,297.010254 1066.215576,305.692322 
	C1043.839233,316.525482 1040.948486,343.867493 1060.684448,358.007843 
	C1074.985962,368.254517 1095.985596,367.522156 1109.515015,356.305023 
	C1120.894165,346.870636 1123.795288,332.441864 1116.618896,318.876953 
M994.395874,357.783051 
	C1007.653503,357.760254 1010.123779,355.286194 1010.124207,342.053864 
	C1010.125366,308.922546 1010.132935,275.791260 1010.123535,242.659958 
	C1010.123169,241.200256 1009.979919,239.740585 1009.907776,238.367584 
	C997.167664,235.525665 991.358276,239.305573 991.287598,251.090759 
	C991.082947,285.219757 991.177368,319.350861 991.305420,353.480530 
	C991.310730,354.893738 992.838135,356.301208 994.395874,357.783051 
M755.245728,337.482574 
	C755.245422,327.001007 755.243713,316.519470 755.245117,306.037903 
	C755.247986,284.908447 755.286865,263.778809 755.186462,242.649857 
	C755.179077,241.086060 754.595032,238.567703 753.567871,238.118164 
	C745.675537,234.664017 736.281494,240.435226 736.251587,248.857422 
	C736.127197,283.961853 736.180481,319.067047 736.271912,354.171661 
	C736.275146,355.412262 737.044922,357.322418 738.003540,357.782379 
	C745.364990,361.314697 754.708862,355.645264 755.200317,347.455383 
	C755.379333,344.471161 755.240112,341.467773 755.245728,337.482574 
M858.793396,285.482880 
	C858.793396,290.094299 858.793396,294.705750 858.793396,299.160461 
	C871.560181,301.506104 877.845459,297.797638 878.014648,287.804169 
	C878.276611,272.324249 878.147949,256.836700 878.032593,241.353516 
	C878.024048,240.207428 877.032104,238.355515 876.091797,238.039902 
	C866.723816,234.895660 858.835999,240.651886 858.799927,250.523514 
	C858.758606,261.845184 858.792480,273.167114 858.793396,285.482880 
z"/>
<path fill="#D53627" opacity="1.000000" stroke="none" 
	d="
M436.093597,301.916412 
	C454.897186,329.781342 464.342072,360.271301 463.521759,393.474365 
	C462.743958,424.957397 439.258881,454.395538 409.185059,463.727905 
	C388.894958,470.024200 368.721619,471.010254 348.368896,464.064850 
	C326.606812,456.638489 312.574066,437.354584 311.697266,414.339569 
	C311.007141,396.226471 316.687195,379.955811 324.507538,364.119873 
	C337.283478,338.249176 352.679871,314.292084 375.122284,295.597260 
	C379.184631,292.213226 383.654602,289.186310 388.296539,286.654938 
	C402.410980,278.957794 414.966644,280.747253 427.156769,292.041687 
	C430.314697,294.967560 432.971466,298.434326 436.093597,301.916412 
z"/>
<path fill="#EF942E" opacity="1.000000" stroke="none" 
	d="
M595.691528,324.658081 
	C588.463623,337.919556 579.499084,349.253998 566.402161,356.412170 
	C547.482910,366.752625 528.645447,365.146667 510.361725,354.443726 
	C494.683258,345.265778 484.056244,331.173706 474.250580,316.408173 
	C460.185760,295.229126 448.679749,272.832947 443.100403,247.806244 
	C440.879333,237.843430 439.530914,227.703934 442.316437,217.645294 
	C446.205475,203.601822 457.306183,197.860748 470.229462,195.078033 
	C492.763641,190.225815 514.906799,193.245102 536.745544,199.537735 
	C551.674744,203.839447 566.041626,209.257584 578.265686,219.386658 
	C595.600952,233.750961 605.140381,252.084641 606.957214,274.410034 
	C608.400574,292.145386 604.124451,308.703064 595.691528,324.658081 
z"/>
<path fill="#2764C0" opacity="1.000000" stroke="none" 
	d="
M332.960205,71.880325 
	C353.436493,66.867287 370.452332,72.826576 385.185547,86.548042 
	C397.705200,98.207954 404.778931,113.238602 410.897675,128.816879 
	C420.144958,152.360214 426.989410,176.523178 426.879028,202.008133 
	C426.838562,211.357040 425.410736,220.913803 423.092957,229.986755 
	C419.947693,242.298965 410.421478,248.191956 398.317566,250.085190 
	C383.617676,252.384476 369.456360,249.575684 355.606720,244.911530 
	C333.964355,237.623047 313.606506,227.758759 297.089020,211.660355 
	C268.935333,184.221100 264.610291,142.989319 285.944977,109.740768 
	C296.614929,93.112389 310.169006,79.767525 329.200775,72.917366 
	C330.292084,72.524567 331.440094,72.289421 332.960205,71.880325 
z"/>
<path fill="#0A0A0A" opacity="1.000000" stroke="none" 
	d="
M221.041382,326.026215 
	C229.910339,322.612610 236.522324,326.228821 242.699875,331.671539 
	C244.858139,333.573090 243.985870,335.023285 242.481232,336.674133 
	C228.347137,352.181549 210.715576,359.841400 189.899063,357.786316 
	C164.021622,355.231567 146.835678,341.040527 138.942764,316.017792 
	C130.832718,290.306671 141.705978,260.369080 164.176910,246.578110 
	C187.554901,232.230469 218.340256,235.935120 238.212936,255.487503 
	C245.133331,262.296356 244.941452,263.099304 236.707672,268.397278 
	C229.571869,272.988800 222.861847,272.799866 215.823486,268.088013 
	C203.924026,260.121887 191.513840,258.744598 178.761307,266.226013 
	C166.077957,273.666870 158.565506,291.142853 161.879196,305.431885 
	C165.893250,322.740906 177.444580,333.351959 194.081772,334.501007 
	C201.322739,335.001099 208.296066,333.452332 214.628342,329.621063 
	C216.613693,328.419830 218.668732,327.333801 221.041382,326.026215 
z"/>
<path fill="#0B0B0B" opacity="1.000000" stroke="none" 
	d="
M300.008545,291.000000 
	C300.009766,303.660797 300.028381,315.821594 300.008698,327.982361 
	C299.962860,356.319885 286.246979,374.280914 258.884766,381.838257 
	C256.000702,382.634857 253.089844,383.334747 250.189606,384.072418 
	C246.204727,385.085999 245.090302,383.167053 245.350723,379.529236 
	C245.831299,372.815857 248.844482,367.540192 254.964462,364.868835 
	C268.875000,358.797058 273.260620,347.498566 273.241821,333.454834 
	C273.212891,311.803070 273.135956,290.150452 273.319794,268.500214 
	C273.355133,264.336517 272.112885,262.816956 267.939331,263.149170 
	C263.965790,263.465424 259.946533,263.159393 255.951218,263.268402 
	C253.273102,263.341492 252.162201,262.444580 252.048096,259.539459 
	C251.555588,247.000595 256.824799,241.410324 269.464447,241.417343 
	C283.124512,241.424911 296.785706,241.515060 310.443878,241.354874 
	C313.975403,241.313461 315.521606,242.100601 315.500214,246.035400 
	C315.442749,256.600250 313.093597,259.832001 302.746979,263.272125 
	C301.497955,263.687408 300.168182,266.026031 300.117645,267.515381 
	C299.857941,275.169342 300.004089,282.837067 300.008545,291.000000 
z"/>
<path fill="#0F0F0F" opacity="1.000000" stroke="none" 
	d="
M1101.308716,252.175201 
	C1101.351440,239.973495 1105.576050,236.792618 1120.281372,238.181992 
	C1120.281372,244.807770 1120.280151,251.551514 1120.281616,258.295258 
	C1120.283081,264.798889 1120.284302,264.799072 1126.708618,264.794922 
	C1128.374390,264.793823 1130.043335,264.723663 1131.705322,264.801208 
	C1137.466553,265.069977 1140.956543,270.708893 1138.374634,275.843201 
	C1137.955811,276.675964 1136.275146,277.220428 1135.143555,277.283112 
	C1131.822510,277.467224 1128.466187,277.557159 1125.157715,277.278931 
	C1121.514893,276.972534 1119.927002,278.137146 1120.228027,281.968597 
	C1120.487915,285.279633 1120.346436,288.628967 1120.266724,291.958588 
	C1120.060303,300.576538 1111.192017,306.531189 1103.282715,303.209778 
	C1102.297485,302.796051 1101.602417,300.969147 1101.359741,299.686066 
	C1101.033813,297.963013 1101.279053,296.131927 1101.279053,293.856445 
	C1094.123169,294.995850 1087.644165,296.577240 1081.095215,296.958618 
	C1066.319580,297.819183 1051.511963,298.338837 1036.712158,298.485779 
	C1029.574585,298.556641 1025.168457,293.400787 1025.131226,286.144623 
	C1025.064575,273.152130 1025.126709,260.158997 1025.094604,247.166229 
	C1025.088745,244.826889 1025.126709,242.830597 1028.366577,242.839752 
	C1047.496094,242.893906 1066.626099,242.866425 1085.630005,242.866425 
	C1088.246948,251.476486 1085.480469,255.364014 1077.115601,255.387421 
	C1066.789062,255.416321 1056.462646,255.427521 1046.136230,255.470154 
	C1045.660767,255.472122 1045.186401,255.706894 1044.360107,255.926743 
	C1044.360107,265.593353 1044.360107,275.317047 1044.360107,285.202850 
	C1044.649902,285.374390 1045.070435,285.845642 1045.466309,285.825806 
	C1062.393311,284.978546 1079.318359,284.092010 1096.243042,283.198517 
	C1100.082764,282.995819 1101.595947,281.227844 1101.421509,277.131470 
	C1101.074829,268.983795 1101.313354,260.811218 1101.308716,252.175201 
z"/>
<path fill="#0E0E0E" opacity="1.000000" stroke="none" 
	d="
M851.999268,358.083618 
	C832.839600,358.084076 814.179077,357.988129 795.521118,358.166412 
	C791.743774,358.202515 790.546082,357.026245 790.711243,353.320526 
	C790.970703,347.500885 790.713196,341.660278 790.801392,335.830444 
	C790.913757,328.404083 794.518921,324.832550 801.900330,324.819061 
	C818.727295,324.788300 835.554321,324.813568 852.381348,324.815979 
	C854.201355,324.816254 856.021362,324.816010 858.471375,324.816010 
	C858.577209,322.490356 858.670898,320.432617 858.802063,317.551514 
	C856.654846,317.551514 854.896790,317.551453 853.138733,317.551544 
	C834.145874,317.552399 815.152893,317.584595 796.160339,317.508728 
	C794.119629,317.500580 791.029114,318.793854 790.840454,314.945312 
	C790.654907,311.160431 789.969910,306.985107 794.886597,305.378235 
	C796.115845,304.976501 797.521729,305.020416 798.846497,305.019440 
	C823.670471,305.001343 848.494507,305.000580 873.318481,305.025818 
	C874.763611,305.027283 876.208435,305.280273 877.979370,305.446869 
	C877.979370,312.785522 878.379089,319.777527 877.862915,326.701172 
	C877.381958,333.151337 871.813965,337.239929 864.301636,337.280701 
	C847.641724,337.371124 830.980835,337.344788 814.320679,337.276733 
	C811.325745,337.264496 809.248352,337.447357 809.297119,341.432831 
	C809.346680,345.485809 811.625183,345.516235 814.521118,345.509888 
	C833.847046,345.467407 853.173401,345.432648 872.498901,345.531036 
	C875.240601,345.545013 879.251404,343.771057 879.205383,349.380463 
	C879.159668,354.949280 877.415955,357.794403 872.488647,358.000977 
	C865.835999,358.279877 859.163330,358.078949 851.999268,358.083618 
z"/>
<path fill="#0E0E0E" opacity="1.000000" stroke="none" 
	d="
M709.018433,321.708130 
	C707.615662,322.638702 706.117310,323.453522 704.826233,324.519379 
	C698.319885,329.890686 693.103943,329.902618 687.466492,323.629547 
	C681.969910,317.513245 677.046021,310.882202 671.496765,304.014343 
	C670.461487,305.653717 669.421509,307.621887 668.081909,309.359009 
	C664.640137,313.822113 661.307861,318.406616 657.492126,322.536377 
	C650.155029,330.477356 644.713379,330.301361 636.803223,322.067261 
	C637.630249,321.141510 638.388184,320.087555 639.340942,319.257141 
	C657.683044,303.270416 662.966248,282.262512 662.289490,259.069275 
	C662.256836,257.950470 659.984619,256.065918 658.647400,255.964783 
	C653.702698,255.590698 648.712646,255.815948 643.859558,255.815948 
	C641.100159,246.469498 643.387146,243.249634 652.405945,243.247787 
	C666.724060,243.244873 681.042603,243.194199 695.359985,243.298615 
	C697.859924,243.316849 701.412842,241.897430 701.597046,246.689087 
	C701.793213,251.789780 699.826294,255.187866 695.693054,255.609039 
	C692.229553,255.961975 688.667236,255.468750 685.237122,255.963608 
	C683.832520,256.166229 681.584167,257.940979 681.541077,259.070160 
	C680.577820,284.283722 687.598755,306.235443 708.601929,322.192810 
	C709.006226,321.967560 709.018433,321.708130 709.018433,321.708130 
z"/>
<path fill="#0F0F0F" opacity="1.000000" stroke="none" 
	d="
M981.168396,353.012939 
	C978.312134,357.076508 970.203735,359.667664 966.242493,357.398987 
	C965.204590,356.804535 964.572632,354.686371 964.553955,353.257538 
	C964.416931,342.762238 964.495300,332.264313 964.472107,321.767273 
	C964.468750,320.246399 964.286255,318.725922 964.120239,316.189575 
	C961.731262,318.766052 960.304871,320.505554 958.673462,322.024811 
	C954.331970,326.067902 950.498230,326.213501 946.571533,321.749268 
	C941.341797,315.803589 936.609985,309.420013 931.221741,302.670105 
	C930.336365,303.549866 929.291626,304.673004 928.159180,305.699371 
	C921.652405,311.596161 915.415100,317.841980 908.509644,323.230225 
	C903.273499,327.315887 894.875122,323.346344 894.038269,316.750153 
	C893.894226,315.615234 895.707092,313.781952 897.041809,312.979309 
	C909.838379,305.284027 919.682922,294.849762 925.166870,280.972778 
	C928.229797,273.222168 929.776367,264.872345 932.246277,255.922791 
	C920.559387,255.922791 910.476746,255.922791 900.580017,255.922791 
	C897.415588,247.086716 900.209412,242.897949 908.813293,242.878601 
	C920.643311,242.852020 932.474915,242.974060 944.302490,242.800888 
	C947.830811,242.749222 948.974792,243.952682 948.885681,247.435471 
	C948.580383,259.366608 946.239258,270.855804 942.267578,282.083374 
	C941.674255,283.760529 941.543762,286.028076 942.173279,287.642731 
	C946.659363,299.149231 954.618164,308.240662 963.383301,317.832458 
	C963.899170,316.086578 964.428711,315.112427 964.438354,314.133179 
	C964.519104,305.969452 964.445068,297.804047 964.550415,289.640869 
	C964.586365,286.856628 963.533386,285.658234 960.711609,285.870331 
	C958.723206,286.019745 956.714844,285.904755 954.715393,285.906677 
	C947.161621,285.913910 945.821655,283.572876 949.488159,276.380798 
	C951.018005,279.183380 947.523315,283.788879 953.639282,284.052734 
	C966.021790,284.586945 966.015930,284.722595 966.015747,297.456177 
	C966.015747,298.622498 966.015686,299.788818 966.015686,300.955139 
	C966.016052,317.783447 966.092957,334.612427 965.952637,351.439545 
	C965.924377,354.830017 966.855835,356.702301 970.400574,355.945190 
	C974.032898,355.169342 977.582581,354.006439 981.168396,353.012939 
z"/>
<path fill="#0F0F0F" opacity="1.000000" stroke="none" 
	d="
M777.642822,247.635406 
	C792.163147,233.396027 814.310242,231.679535 830.494568,243.303085 
	C846.295471,254.651230 847.261169,276.194458 832.538940,288.911224 
	C818.041077,301.434204 794.535828,301.351135 780.175842,288.726227 
	C767.467529,277.553375 766.395264,261.774933 777.642822,247.635406 
M809.733643,286.626099 
	C821.500488,282.764252 827.061584,269.920563 821.982849,258.335815 
	C818.447388,250.271378 811.200317,245.670273 804.052124,246.951721 
	C794.624329,248.641830 788.066711,258.864929 789.336548,269.892731 
	C790.564819,280.558868 798.660156,287.556885 809.733643,286.626099 
z"/>
<path fill="#0E0E0E" opacity="1.000000" stroke="none" 
	d="
M1116.762451,319.211426 
	C1123.795288,332.441864 1120.894165,346.870636 1109.515015,356.305023 
	C1095.985596,367.522156 1074.985962,368.254517 1060.684448,358.007843 
	C1040.948486,343.867493 1043.839233,316.525482 1066.215576,305.692322 
	C1084.148804,297.010254 1105.270996,302.535461 1116.762451,319.211426 
M1091.941284,351.684235 
	C1098.363770,348.124817 1101.006348,342.181274 1101.958252,335.334351 
	C1103.265625,325.929535 1096.619995,315.936554 1087.579224,313.392334 
	C1080.015137,311.263672 1071.218506,316.481750 1067.643066,325.406250 
	C1066.852173,327.380402 1066.482788,329.575958 1066.234009,331.706329 
	C1064.482178,346.709442 1077.964844,357.643280 1091.941284,351.684235 
z"/>
<path fill="#0D0D0D" opacity="1.000000" stroke="none" 
	d="
M709.066162,322.261230 
	C709.018433,321.708130 709.006226,321.967560 709.018677,322.030975 
	C709.031128,310.319122 709.031128,298.543823 709.031128,286.156952 
	C705.508057,286.156952 702.531921,286.388947 699.612427,286.081970 
	C697.361450,285.845276 693.945740,287.887085 693.347595,283.422546 
	C692.657349,278.269440 694.564758,274.702362 699.067566,273.929474 
	C702.140747,273.401978 705.334229,273.574829 709.063721,273.408173 
	C709.063721,266.289551 709.061829,259.350006 709.064148,252.410461 
	C709.067993,240.927170 712.652771,237.509109 723.962585,237.747833 
	C727.124817,237.814575 728.464294,238.702957 728.331299,242.065857 
	C728.101135,247.882523 728.244507,253.714233 728.244446,259.539642 
	C728.244263,287.501678 728.252014,315.463745 728.249512,343.425781 
	C728.248474,354.834778 724.558899,358.311768 713.257812,358.162231 
	C709.923035,358.118103 708.952026,356.966125 709.002686,353.770996 
	C709.166382,343.454102 709.094849,333.133514 709.066162,322.261230 
z"/>
<path fill="#0F0F0F" opacity="1.000000" stroke="none" 
	d="
M994.026123,357.747192 
	C992.838135,356.301208 991.310730,354.893738 991.305420,353.480530 
	C991.177368,319.350861 991.082947,285.219757 991.287598,251.090759 
	C991.358276,239.305573 997.167664,235.525665 1009.907776,238.367584 
	C1009.979919,239.740585 1010.123169,241.200256 1010.123535,242.659958 
	C1010.132935,275.791260 1010.125366,308.922546 1010.124207,342.053864 
	C1010.123779,355.286194 1007.653503,357.760254 994.026123,357.747192 
z"/>
<path fill="#0F0F0F" opacity="1.000000" stroke="none" 
	d="
M755.245850,337.977844 
	C755.240112,341.467773 755.379333,344.471161 755.200317,347.455383 
	C754.708862,355.645264 745.364990,361.314697 738.003540,357.782379 
	C737.044922,357.322418 736.275146,355.412262 736.271912,354.171661 
	C736.180481,319.067047 736.127197,283.961853 736.251587,248.857422 
	C736.281494,240.435226 745.675537,234.664017 753.567871,238.118164 
	C754.595032,238.567703 755.179077,241.086060 755.186462,242.649857 
	C755.286865,263.778809 755.247986,284.908447 755.245117,306.037903 
	C755.243713,316.519470 755.245422,327.001007 755.245850,337.977844 
z"/>
<path fill="#090909" opacity="1.000000" stroke="none" 
	d="
M981.214966,352.954651 
	C977.582581,354.006439 974.032898,355.169342 970.400574,355.945190 
	C966.855835,356.702301 965.924377,354.830017 965.952637,351.439545 
	C966.092957,334.612427 966.016052,317.783447 966.015686,300.955139 
	C966.015686,299.788818 966.015747,298.622498 966.015747,297.456177 
	C966.015930,284.722595 966.021790,284.586945 953.639282,284.052734 
	C947.523315,283.788879 951.018005,279.183380 949.794189,276.227631 
	C949.700745,275.770905 949.704834,275.830597 950.188599,275.874115 
	C954.170593,275.943665 957.677734,275.822144 961.164429,276.035797 
	C964.920288,276.265869 966.152527,274.612915 966.066528,271.007019 
	C965.895874,263.846771 965.713501,256.660156 966.172363,249.525360 
	C966.344849,246.842941 967.595642,243.168991 969.588562,241.927490 
	C972.200195,240.300522 976.044739,240.301956 979.330627,240.416779 
	C979.956055,240.438660 980.922424,244.241669 980.931702,246.303741 
	C981.043396,271.128357 980.976990,295.953705 981.017700,320.778778 
	C981.035156,331.435791 981.193359,342.092560 981.287598,352.749451 
	C981.287598,352.749451 981.261536,352.896332 981.214966,352.954651 
z"/>
<path fill="#0D0D0D" opacity="1.000000" stroke="none" 
	d="
M858.793518,284.985901 
	C858.792480,273.167114 858.758606,261.845184 858.799927,250.523514 
	C858.835999,240.651886 866.723816,234.895660 876.091797,238.039902 
	C877.032104,238.355515 878.024048,240.207428 878.032593,241.353516 
	C878.147949,256.836700 878.276611,272.324249 878.014648,287.804169 
	C877.845459,297.797638 871.560181,301.506104 858.793396,299.160461 
	C858.793396,294.705750 858.793396,290.094299 858.793518,284.985901 
z"/>
<path fill="#0F0F0F" opacity="1.000000" stroke="none" 
	d="
M981.571655,352.496094 
	C981.193359,342.092560 981.035156,331.435791 981.017700,320.778778 
	C980.976990,295.953705 981.043396,271.128357 980.931702,246.303741 
	C980.922424,244.241669 979.956055,240.438660 979.330627,240.416779 
	C976.044739,240.301956 972.200195,240.300522 969.588562,241.927490 
	C967.595642,243.168991 966.344849,246.842941 966.172363,249.525360 
	C965.713501,256.660156 965.895874,263.846771 966.066528,271.007019 
	C966.152527,274.612915 964.920288,276.265869 961.164429,276.035797 
	C957.677734,275.822144 954.170593,275.943665 950.188477,275.845886 
	C952.241333,274.985016 954.734436,273.956360 957.328796,273.482635 
	C959.393188,273.105682 961.581238,273.406647 964.493713,273.406647 
	C964.493713,267.498901 964.493835,262.082520 964.493530,256.666138 
	C964.493469,255.499573 964.492371,254.333023 964.490723,253.166458 
	C964.471375,239.593796 969.325684,235.626663 983.116455,238.275360 
	C983.197449,239.645676 983.357971,241.100906 983.358582,242.556183 
	C983.373108,276.386444 983.405029,310.216766 983.304932,344.046753 
	C983.296875,346.780151 982.360596,349.510803 981.571655,352.496094 
z"/>
<path fill="#F6F6F6" opacity="1.000000" stroke="none" 
	d="
M809.336121,286.731934 
	C798.660156,287.556885 790.564819,280.558868 789.336548,269.892731 
	C788.066711,258.864929 794.624329,248.641830 804.052124,246.951721 
	C811.200317,245.670273 818.447388,250.271378 821.982849,258.335815 
	C827.061584,269.920563 821.500488,282.764252 809.336121,286.731934 
z"/>
<path fill="#F5F5F5" opacity="1.000000" stroke="none" 
	d="
M1091.611084,351.878448 
	C1077.964844,357.643280 1064.482178,346.709442 1066.234009,331.706329 
	C1066.482788,329.575958 1066.852173,327.380402 1067.643066,325.406250 
	C1071.218506,316.481750 1080.015137,311.263672 1087.579224,313.392334 
	C1096.619995,315.936554 1103.265625,325.929535 1101.958252,335.334351 
	C1101.006348,342.181274 1098.363770,348.124817 1091.611084,351.878448 
z"/>
</svg>